# xmcd
#
# Track frame offsets:
#	150
#	2066
#	12036
#	29034
#	42473
#	60958
#	81408
#	111774
#	132640
#	154862
#	179823
#	201414
#	227481
#
# Disc length: 3053 seconds
#
# Revision: 0
# Processed by: cddbd v1.4PL0 Copyright (c) Steve Scherf et al.
# Submitted via: EasyCDDAExtractor 4.5.0.2
#
DISCID=b10beb0d
DTITLE=Harlem Gospel Choir - Live Down Under
DYEAR=2000
DGENRE=Gospel
TTITLE0=Introduction
TTITLE1=This little light of mine
TTITLE2=I'm so glad
TTITLE3=His eye is on the sparrow
TTITLE4=Swing low sweet Chariot
TTITLE5=Every time I feel the spirit
TTITLE6=I will sing hallelujah
TTITLE7=Who's the lord's side
TTITLE8=Jesus joy man's desiring
TTITLE9=Amazing grace
TTITLE10=Oh happy day
TTITLE11=I belive I can fly
TTITLE12=Finish
EXTD=
EXTT0=
EXTT1=
EXTT2=
EXTT3=
EXTT4=
EXTT5=
EXTT6=
EXTT7=
EXTT8=
EXTT9=
EXTT10=
EXTT11=
EXTT12=
PLAYORDER=
